<svg xmlns="http://www.w3.org/2000/svg" viewBox="0 0 214.65 229.3"><defs><style>.a{fill:#4eb862;}.b{opacity:0.15;}.c{fill:none;stroke:#fff;stroke-miterlimit:10;stroke-width:20px;}.d{fill:#fff;}</style></defs><title>simbolo ganrantia de troca ou devolução</title><path class="a" d="M220.66,80.62c-13-6.53-71.8-39.17-71.8-39.17s-3.27-3.26-13.06-3.26-13.06,3.26-13.06,3.26S64,74.09,50.94,80.62s-19.59,22.85-19.59,22.85v81.6c0,29.37,13.06,32.64,13.06,32.64s55.49,32.64,71.81,42.43,19.58,6.53,19.58,6.53,3.26,3.26,19.58-6.53,71.81-42.43,71.81-42.43,13.06-3.27,13.06-32.64v-81.6S233.72,87.15,220.66,80.62Z" transform="translate(-31.35 -37.88)"/><path class="b" d="M220.46,80.31c-13.05-6.53-71.81-39.17-71.81-39.17S145.47,38,136,37.88V266.59c1.26.52,5.89,1.21,19.18-6.77C171.5,250,227,217.39,227,217.39s13.06-3.26,13.06-32.64v-81.6S233.52,86.83,220.46,80.31Z" transform="translate(-31.35 -37.88)"/><circle class="c" cx="104.45" cy="114.8" r="75"/><polygon class="d" points="62.23 84.08 39.65 106.67 96.1 163.12 113.03 163.12 214.65 61.5 186.42 33.28 101.75 117.95 62.23 84.08"/></svg>